<?xml version="1.0" encoding="UTF-8"?>
<svg width="64" height="64" viewBox="0 0 64 64" xmlns="http://www.w3.org/2000/svg">
    <!-- 背景圆形 -->
    <circle cx="32" cy="32" r="30" fill="#3498db" stroke="#2980b9" stroke-width="2"/>

    <!-- JSON 大括号 -->
    <path d="M18 20 C16 20 14 22 14 24 L14 28 C14 30 12 32 10 32 C12 32 14 34 14 36 L14 40 C14 42 16 44 18 44"
          fill="none" stroke="white" stroke-width="3" stroke-linecap="round"/>

    <path d="M46 20 C48 20 50 22 50 24 L50 28 C50 30 52 32 54 32 C52 32 50 34 50 36 L50 40 C50 42 48 44 46 44"
          fill="none" stroke="white" stroke-width="3" stroke-linecap="round"/>

    <!-- 中间的格式化符号 -->
    <line x1="24" y1="26" x2="40" y2="26" stroke="white" stroke-width="2" stroke-linecap="round"/>
    <line x1="28" y1="32" x2="36" y2="32" stroke="white" stroke-width="2" stroke-linecap="round"/>
    <line x1="24" y1="38" x2="40" y2="38" stroke="white" stroke-width="2" stroke-linecap="round"/>

    <!-- 小装饰点 -->
    <circle cx="22" cy="32" r="1.5" fill="white"/>
    <circle cx="42" cy="32" r="1.5" fill="white"/>
</svg>